<svg width="26" height="26" viewBox="0 0 26 26" fill="none" xmlns="http://www.w3.org/2000/svg">
<path d="M21.0765 5.45312C19.0306 3.40234 16.306 2.27441 13.4105 2.27441C7.43396 2.27441 2.57068 7.1377 2.57068 13.1143C2.57068 15.0234 3.06873 16.8887 4.01599 18.5342L2.47791 24.1494L8.22498 22.6406C9.80701 23.5049 11.5892 23.959 13.4056 23.959H13.4105C19.3822 23.959 24.3529 19.0957 24.3529 13.1191C24.3529 10.2236 23.1224 7.50391 21.0765 5.45312ZM13.4105 22.1328C11.7894 22.1328 10.2025 21.6982 8.82068 20.8779L8.49353 20.6826L5.08533 21.5762L5.99353 18.251L5.77869 17.9092C4.87537 16.4736 4.40173 14.8184 4.40173 13.1143C4.40173 8.14844 8.4447 4.10547 13.4154 4.10547C15.8226 4.10547 18.0834 5.04297 19.7826 6.74707C21.4818 8.45117 22.5267 10.7119 22.5219 13.1191C22.5219 18.0898 18.3763 22.1328 13.4105 22.1328ZM18.3519 15.3848C18.0834 15.248 16.7504 14.5937 16.5013 14.5059C16.2523 14.4131 16.0717 14.3691 15.891 14.6426C15.7103 14.916 15.1927 15.5215 15.0316 15.707C14.8754 15.8877 14.7142 15.9121 14.4457 15.7754C12.8539 14.9795 11.809 14.3545 10.7592 12.5527C10.4808 12.0742 11.0375 12.1084 11.5551 11.0732C11.6429 10.8926 11.599 10.7363 11.5306 10.5996C11.4623 10.4629 10.9203 9.12988 10.6957 8.58789C10.476 8.06055 10.2513 8.13379 10.0853 8.12402C9.92908 8.11426 9.74841 8.11426 9.56775 8.11426C9.38708 8.11426 9.09412 8.18262 8.84509 8.45117C8.59607 8.72461 7.89783 9.37891 7.89783 10.7119C7.89783 12.0449 8.86951 13.334 9.00134 13.5146C9.13806 13.6953 10.9105 16.4297 13.6302 17.6064C15.349 18.3486 16.0228 18.4121 16.8822 18.2852C17.4047 18.207 18.4838 17.6309 18.7084 16.9961C18.933 16.3613 18.933 15.8193 18.8646 15.707C18.8011 15.585 18.6205 15.5166 18.3519 15.3848Z" fill="white"/>
</svg>
